<svg xmlns="http://www.w3.org/2000/svg" width="24" height="24" viewBox="0 0 24 24" version="1.1" id="svg1">
  <defs/>
  <path id="Path 267" d="M5.2,9.731 L16.838,7.932 Q19.092,7.583 19.492,9.829 L20.69,16.57 Q20.863,17.539 20.289,18.339 Q19.715,19.139 18.741,19.286 L6.894,21.076 Q5.935,21.221 5.157,20.644 Q4.378,20.067 4.237,19.108 L3.248,12.376 Q2.911,10.085 5.2,9.731 Z M5.403,11.049 Q4.422,11.2 4.567,12.182 L5.556,18.914 Q5.616,19.325 5.95,19.572 Q6.284,19.82 6.695,19.758 L18.542,17.968 Q18.959,17.904 19.205,17.562 Q19.451,17.219 19.378,16.804 L18.179,10.063 Q18.008,9.1 17.042,9.25 Z"/>
  <path id="Oval" d="M13.689,3 A1.345 1.333 0 1 1 11,3 A1.345 1.333 0 1 1 13.689,3 Z"/>
  <path id="Path 268" fill="#000000" d="M9.787,4.215 A0.667 0.667 0 0 0 9.309,4.391 L5.139,8.232 A0.667 0.667 0 0 0 4.93,8.816 C5.502,8.71 6.156,8.589 6.861,8.457 L10.211,5.373 A0.667 0.667 0 0 0 10.25,4.43 A0.667 0.667 0 0 0 9.787,4.215 Z"/>
  <path id="Path 269" fill="#000000" d="M14.863,3.992 A0.667 0.667 0 0 0 14.469,4.16 A0.667 0.667 0 0 0 14.412,5.1 L15.904,6.781 C16.483,6.675 17.002,6.583 17.439,6.504 L15.41,4.215 A0.667 0.667 0 0 0 14.863,3.992 Z"/>
</svg>
