<svg xmlns="http://www.w3.org/2000/svg" width="24" height="24" viewBox="0 0 24 24">
  <defs/>
  <path id="Union" d="M3.904,16.647 C3.117,15.278 2.667,13.691 2.667,12 C2.667,6.845 6.845,2.667 12,2.667 C17.155,2.667 21.333,6.845 21.333,12 C21.333,17.155 17.155,21.333 12,21.333 C11.624,21.333 11.252,21.311 10.887,21.268 C10.709,21.75 10.333,22.361 9.558,22.587 C8.632,22.856 7.597,22.897 6.725,22.794 C6.285,22.742 5.85,22.649 5.465,22.508 C5.113,22.379 4.662,22.159 4.344,21.767 C3.763,21.049 3.534,20.164 3.494,19.332 C3.454,18.494 3.599,17.626 3.851,16.836 C3.871,16.772 3.889,16.709 3.904,16.647 Z M4,12 C4,12.644 4.076,13.269 4.219,13.869 C4.31,13.733 4.432,13.601 4.598,13.489 C5.055,13.178 5.545,13.127 5.912,13.165 C6.241,13.198 6.612,13.316 6.895,13.541 C7.857,14.305 7.869,15.301 7.846,15.826 C7.878,15.822 7.913,15.817 7.951,15.81 C8.205,15.766 8.473,15.686 8.843,15.576 L8.843,15.576 L8.843,15.576 L8.843,15.576 C8.925,15.551 9.012,15.525 9.105,15.498 L9.175,15.477 C9.827,15.285 10.619,15.051 11.257,14.968 C11.566,14.927 12.022,14.893 12.451,15.036 C12.689,15.115 12.976,15.268 13.2,15.558 C13.431,15.858 13.513,16.197 13.513,16.499 C13.513,16.968 13.394,17.432 13.083,17.829 C12.792,18.2 12.419,18.401 12.139,18.522 C11.919,18.618 11.663,18.701 11.458,18.768 L11.458,18.768 C11.413,18.783 11.372,18.796 11.333,18.809 C11.268,18.831 11.204,18.852 11.141,18.875 C11.141,18.943 11.141,19.018 11.141,19.101 L11.141,19.108 C11.141,19.292 11.141,19.505 11.134,19.724 C11.132,19.796 11.128,19.873 11.124,19.953 C11.412,19.984 11.704,20 12,20 C16.418,20 20,16.418 20,12 C20,7.582 16.418,4 12,4 C7.582,4 4,7.582 4,12 Z M5.261,21.024 C5.737,21.613 7.735,21.889 9.228,21.454 C9.961,21.241 9.961,20.015 9.961,19.087 C9.961,18.541 9.962,18.099 10.111,18.026 C10.468,17.851 10.811,17.739 11.116,17.639 C11.828,17.406 12.333,17.241 12.333,16.499 C12.333,15.776 10.848,16.214 9.453,16.625 L9.438,16.629 C9.36,16.653 9.282,16.676 9.205,16.699 C8.382,16.945 7.672,17.158 7.045,16.899 C6.617,16.722 6.637,16.351 6.66,15.92 L6.66,15.92 C6.686,15.448 6.715,14.904 6.162,14.464 C6.034,14.363 5.608,14.229 5.261,14.464 C5.105,14.57 5.123,14.843 5.149,15.24 L5.149,15.24 L5.149,15.24 C5.181,15.729 5.226,16.408 4.975,17.194 C4.537,18.564 4.51,20.097 5.261,21.024 Z M8.846,13.442 C8.534,12.91 8.534,12.91 8.534,12.91 L8.535,12.91 L8.536,12.909 L8.538,12.908 L8.545,12.904 L8.563,12.894 C8.577,12.886 8.597,12.875 8.621,12.863 C8.669,12.838 8.736,12.806 8.821,12.769 C8.99,12.695 9.233,12.603 9.539,12.522 C10.153,12.359 11.025,12.239 12.087,12.389 C13.147,12.54 13.977,12.9 14.545,13.226 C14.829,13.389 15.049,13.544 15.201,13.661 C15.277,13.72 15.336,13.769 15.377,13.805 C15.398,13.823 15.415,13.838 15.427,13.849 L15.442,13.863 L15.447,13.868 L15.449,13.87 L15.45,13.871 L15.45,13.871 C15.451,13.871 15.447,13.876 15.025,14.316 L15.451,13.871 C15.697,14.107 15.705,14.497 15.469,14.743 C15.234,14.988 14.846,14.997 14.6,14.764 L14.599,14.764 L14.599,14.764 L14.596,14.76 L14.586,14.751 L14.57,14.737 C14.545,14.715 14.504,14.681 14.447,14.638 C14.335,14.551 14.161,14.428 13.932,14.296 C13.471,14.032 12.79,13.735 11.913,13.611 C11.039,13.487 10.334,13.587 9.855,13.714 C9.615,13.778 9.432,13.848 9.313,13.899 C9.253,13.925 9.21,13.947 9.184,13.96 C9.171,13.967 9.163,13.971 9.158,13.974 L9.156,13.975 L9.157,13.974 L9.158,13.974 Z M7.173,7.257 C7.65,6.871 8.331,6.533 9.04,6.533 C9.742,6.533 10.378,6.793 10.839,7.107 C11.069,7.264 11.259,7.437 11.393,7.603 C11.522,7.762 11.616,7.935 11.616,8.09 C11.616,8.131 11.605,8.183 11.563,8.224 C11.523,8.263 11.474,8.274 11.44,8.276 C11.376,8.281 11.303,8.261 11.238,8.239 C11.149,8.21 11.033,8.161 10.901,8.107 L10.901,8.107 L10.901,8.106 C10.833,8.078 10.76,8.048 10.685,8.018 C10.231,7.836 9.625,7.626 8.983,7.626 C8.355,7.626 7.833,7.922 7.434,8.187 C7.378,8.224 7.324,8.261 7.271,8.297 C7.142,8.385 7.024,8.466 6.929,8.515 C6.863,8.549 6.784,8.581 6.704,8.577 C6.66,8.575 6.616,8.562 6.576,8.532 C6.537,8.503 6.511,8.465 6.494,8.425 C6.454,8.335 6.459,8.236 6.483,8.144 C6.507,8.05 6.554,7.953 6.616,7.855 C6.739,7.66 6.933,7.45 7.173,7.257 Z M13.663,7.316 C14.099,7.179 14.699,7.12 15.376,7.179 C16.057,7.239 16.594,7.437 16.958,7.68 C17.141,7.802 17.282,7.937 17.377,8.073 C17.471,8.209 17.522,8.353 17.51,8.491 C17.507,8.521 17.499,8.551 17.481,8.579 C17.462,8.608 17.437,8.628 17.409,8.642 C17.358,8.667 17.297,8.668 17.243,8.664 C17.132,8.656 16.978,8.615 16.797,8.567 L16.753,8.556 C16.386,8.458 15.875,8.322 15.243,8.266 C14.699,8.219 14.227,8.246 13.855,8.267 L13.855,8.267 C13.777,8.271 13.704,8.276 13.635,8.279 C13.441,8.288 13.271,8.29 13.149,8.26 C13.087,8.245 13.026,8.219 12.981,8.171 C12.933,8.121 12.913,8.057 12.914,7.987 C12.917,7.83 13.002,7.694 13.133,7.584 C13.263,7.475 13.446,7.385 13.663,7.316 Z M9.167,11.033 C8.614,11.033 8.167,10.429 8.167,9.683 C8.167,8.938 8.614,8.333 9.167,8.333 C9.719,8.333 10.167,8.938 10.167,9.683 C10.167,10.429 9.719,11.033 9.167,11.033 Z M15.833,10.283 C15.833,11.029 15.386,11.633 14.833,11.633 C14.281,11.633 13.833,11.029 13.833,10.283 C13.833,9.538 14.281,8.933 14.833,8.933 C15.386,8.933 15.833,9.538 15.833,10.283 Z M8.846,13.442 L9.156,13.975 L9.156,13.975 C8.863,14.145 8.487,14.047 8.315,13.754 C8.142,13.461 8.24,13.083 8.534,12.91 Z"/>
</svg>

