<svg xmlns="http://www.w3.org/2000/svg" width="24" height="24" viewBox="0 0 24 24" version="1.1" id="svg1">
   <defs/>
   <path id="Path 279" fill="#000000" d="M5.881,10.557 L4.547,11.842 L4.547,18.467 C4.547,19.932 5.75,21.133 7.215,21.133 L16.785,21.133 C18.25,21.133 19.453,19.932 19.453,18.467 L19.453,12.25 L18.119,10.891 L18.119,18.467 C18.119,19.211 17.529,19.801 16.785,19.801 L7.215,19.801 C6.471,19.801 5.881,19.211 5.881,18.467 L5.881,10.557 Z"/>
   <path id="Rectangle" d="M10.746,11.333 L13.254,11.333 Q14.743,11.333 14.743,12.822 L14.743,15.311 Q14.743,16.8 13.254,16.8 L10.746,16.8 Q9.257,16.8 9.257,15.311 L9.257,12.822 Q9.257,12.205 9.693,11.769 Q10.129,11.333 10.746,11.333 Z M10.746,12.533 Q10.457,12.533 10.457,12.822 L10.457,15.311 Q10.457,15.6 10.746,15.6 L13.254,15.6 Q13.543,15.6 13.543,15.311 L13.543,12.822 Q13.543,12.533 13.254,12.533 Z"/>
   <path id="Path 280" d="M17.837,8.139 L17.838,5.346 Q17.838,5.042 18.053,4.827 Q18.268,4.612 18.572,4.613 Q18.875,4.613 19.09,4.828 Q19.305,5.042 19.305,5.346 L19.304,8.14 Q19.303,8.443 19.089,8.658 Q18.874,8.873 18.57,8.873 Q18.266,8.873 18.051,8.658 Q17.837,8.443 17.837,8.139 Z"/>
   <path id="Path 278" d="M1.561,10.87 L10.789,2.782 Q11.933,1.78 13.075,2.783 L22.44,11.003 Q22.647,11.185 22.665,11.461 Q22.683,11.736 22.501,11.944 Q22.319,12.152 22.043,12.169 Q21.768,12.187 21.56,12.005 L12.196,3.785 Q11.932,3.553 11.668,3.785 L2.439,11.873 Q2.232,12.055 1.956,12.037 Q1.681,12.018 1.499,11.811 Q1.317,11.603 1.335,11.327 Q1.353,11.052 1.561,10.87 Z"/>
 </svg>
 
 