<svg xmlns="http://www.w3.org/2000/svg" width="24" height="24" viewBox="0 0 24 24">
  <defs/>
  <path id="Vector" d="M9.822,20.325 C10.19,20.325 10.487,20.027 10.487,19.66 C10.487,19.293 10.19,18.995 9.822,18.995 L9.822,20.325 Z M6.986,19.66 L6.98,20.325 L6.986,20.325 L6.986,19.66 Z M8.616,10.718 C8.984,10.718 9.281,10.42 9.281,10.053 C9.281,9.686 8.984,9.388 8.616,9.388 L8.616,10.718 Z M6.949,19.659 L6.989,18.995 C6.959,18.993 6.929,18.993 6.9,18.995 L6.949,19.659 Z M6.95,10.053 L6.961,9.388 L6.95,9.388 L6.95,10.053 Z M6.979,10.053 L6.973,10.718 L6.979,10.718 L6.979,10.053 Z M6.976,10.053 L6.965,10.718 L6.97,10.718 L6.976,10.053 Z M6.972,19.66 L6.947,20.324 C6.953,20.325 6.96,20.325 6.966,20.325 L6.972,19.66 Z M6.957,19.659 L6.918,20.323 L6.931,20.324 L6.957,19.659 Z M19.073,9.367 L19.073,8.702 L19.069,8.702 L19.073,9.367 Z M15.565,9.386 L15.565,10.051 L15.568,10.051 L15.565,9.386 Z M19.756,15.215 L19.297,14.733 C19.076,14.945 19.027,15.28 19.18,15.546 L19.756,15.215 Z M9.822,18.995 L6.986,18.995 L6.986,20.325 L9.822,20.325 L9.822,18.995 Z M6.9,18.995 C6.9,18.995 6.898,18.996 6.896,18.996 C6.893,18.996 6.89,18.996 6.885,18.996 C6.875,18.996 6.862,18.995 6.845,18.994 C6.812,18.992 6.768,18.986 6.715,18.977 C6.608,18.958 6.474,18.924 6.321,18.87 C6.016,18.761 5.657,18.576 5.315,18.286 C4.65,17.723 3.995,16.72 3.995,14.944 L2.665,14.944 C2.665,17.096 3.481,18.476 4.456,19.301 C4.933,19.706 5.436,19.966 5.873,20.122 C6.294,20.273 6.703,20.344 6.999,20.322 L6.9,18.995 Z M3.995,14.944 C3.995,12.841 4.617,11.83 5.214,11.327 C5.833,10.806 6.557,10.718 6.95,10.718 L6.95,9.388 C6.398,9.388 5.312,9.506 4.357,10.31 C3.38,11.133 2.665,12.568 2.665,14.944 L3.995,14.944 Z M6.94,10.718 L6.965,10.718 L6.986,9.388 L6.961,9.388 L6.94,10.718 Z M6.984,9.388 L6.981,9.388 L6.97,10.718 L6.973,10.718 L6.984,9.388 Z M6.992,18.995 L6.978,18.995 L6.966,20.325 L6.98,20.325 L6.992,18.995 Z M6.91,20.323 L6.918,20.323 L6.996,18.995 L6.989,18.995 L6.91,20.323 Z M6.998,18.995 L6.982,18.995 L6.931,20.324 L6.947,20.324 L6.998,18.995 Z M19.069,8.702 L15.561,8.721 L15.568,10.051 L19.076,10.032 L19.069,8.702 Z M12.959,2.471 C12.398,3.515 11.395,5.206 10.456,6.463 L11.522,7.259 C12.514,5.93 13.552,4.178 14.131,3.1 L12.959,2.471 Z M10.456,6.463 C9.598,7.613 8.557,9.116 7.772,10.269 L8.871,11.017 C9.654,9.867 10.681,8.384 11.522,7.259 L10.456,6.463 Z M15.295,8.222 C15.454,7.554 15.809,6.718 16.067,6.117 L14.845,5.592 C14.598,6.168 14.192,7.114 14.001,7.914 L15.295,8.222 Z M16.067,6.117 C16.345,5.47 16.627,4.744 16.742,3.869 L15.424,3.695 C15.332,4.385 15.109,4.976 14.845,5.592 L16.067,6.117 Z M19.489,18.466 C19.683,18.326 20.358,17.815 20.645,17.083 L19.407,16.597 C19.346,16.752 19.226,16.917 19.076,17.072 C18.931,17.222 18.785,17.334 18.712,17.387 L19.489,18.466 Z M13.053,21.305 C13.846,21.323 14.556,21.335 15.011,21.335 L15.011,20.005 C14.572,20.005 13.875,19.993 13.082,19.975 L13.053,21.305 Z M15.011,21.335 C15.676,21.335 16.524,21.291 17.2,21.249 L17.116,19.921 C16.445,19.964 15.632,20.005 15.011,20.005 L15.011,21.335 Z M7.793,14.558 C7.793,13.291 8.164,12.056 8.871,11.017 L7.772,10.269 C6.91,11.535 6.463,13.032 6.463,14.558 L7.793,14.558 Z M15.229,1.378 C14.277,1.186 13.4,1.65 12.959,2.471 L14.131,3.1 C14.315,2.759 14.629,2.614 14.967,2.682 L15.229,1.378 Z M14.967,2.682 C15.135,2.715 15.249,2.809 15.33,2.97 C15.419,3.148 15.462,3.407 15.424,3.695 L16.742,3.869 C16.808,3.374 16.751,2.836 16.518,2.373 C16.277,1.893 15.847,1.502 15.229,1.378 L14.967,2.682 Z M15.565,8.721 C15.456,8.721 15.39,8.678 15.344,8.609 C15.291,8.53 15.254,8.393 15.295,8.222 L14.001,7.914 C13.882,8.414 13.963,8.936 14.238,9.348 C14.52,9.771 14.993,10.051 15.565,10.051 L15.565,8.721 Z M18.526,19.118 C18.322,19.578 17.746,19.881 17.116,19.921 L17.2,21.249 C18.09,21.192 19.257,20.751 19.742,19.656 L18.526,19.118 Z M6.545,15.537 C7.056,18.898 9.777,21.232 13.053,21.305 L13.082,19.975 C10.452,19.917 8.274,18.058 7.86,15.338 L6.545,15.537 Z M19.073,10.032 C19.527,10.032 19.984,10.447 19.995,11.056 L21.325,11.032 C21.302,9.794 20.344,8.702 19.073,8.702 L19.073,10.032 Z M20.778,12.63 C21.031,12.339 21.339,11.814 21.325,11.032 L19.995,11.056 C20.002,11.449 19.855,11.665 19.775,11.757 L20.778,12.63 Z M21.226,13.722 C21.238,13.415 21.155,13.107 21.076,12.877 C20.992,12.635 20.888,12.413 20.81,12.26 L19.624,12.861 C19.686,12.983 19.761,13.147 19.819,13.312 C19.88,13.49 19.899,13.611 19.897,13.669 L21.226,13.722 Z M19.756,15.215 C20.215,15.696 20.215,15.696 20.215,15.696 C20.215,15.696 20.216,15.695 20.216,15.695 C20.216,15.695 20.216,15.695 20.216,15.695 C20.217,15.694 20.217,15.694 20.218,15.694 C20.219,15.693 20.22,15.691 20.221,15.69 C20.224,15.687 20.228,15.684 20.232,15.68 C20.24,15.671 20.252,15.66 20.265,15.646 C20.292,15.618 20.329,15.58 20.373,15.531 C20.459,15.435 20.575,15.297 20.692,15.129 C20.914,14.812 21.203,14.304 21.226,13.722 L19.897,13.669 C19.889,13.868 19.775,14.12 19.602,14.367 C19.522,14.481 19.442,14.576 19.383,14.643 C19.353,14.676 19.329,14.701 19.314,14.716 C19.306,14.724 19.301,14.73 19.298,14.733 C19.297,14.734 19.296,14.735 19.296,14.735 C19.296,14.735 19.296,14.735 19.296,14.735 C19.296,14.735 19.296,14.734 19.297,14.734 C19.297,14.734 19.297,14.734 19.297,14.734 C19.297,14.734 19.297,14.734 19.297,14.733 C19.297,14.733 19.297,14.733 19.756,15.215 Z M20.645,17.083 C20.866,16.522 20.74,15.93 20.627,15.57 C20.565,15.374 20.494,15.208 20.438,15.089 C20.41,15.03 20.386,14.981 20.367,14.947 C20.358,14.929 20.35,14.915 20.345,14.904 C20.342,14.899 20.339,14.894 20.337,14.891 C20.336,14.889 20.335,14.888 20.335,14.886 C20.334,14.886 20.334,14.885 20.334,14.885 C20.334,14.884 20.333,14.884 20.333,14.884 C20.333,14.884 20.333,14.884 20.333,14.884 C20.333,14.883 20.333,14.883 19.756,15.215 C19.18,15.546 19.18,15.546 19.18,15.546 C19.18,15.546 19.179,15.545 19.179,15.545 C19.179,15.545 19.179,15.545 19.179,15.545 C19.179,15.544 19.179,15.544 19.179,15.544 C19.178,15.544 19.178,15.544 19.178,15.544 C19.178,15.544 19.179,15.545 19.18,15.546 C19.182,15.55 19.186,15.557 19.191,15.566 C19.201,15.585 19.216,15.616 19.234,15.655 C19.272,15.734 19.319,15.845 19.358,15.97 C19.447,16.251 19.456,16.472 19.407,16.597 L20.645,17.083 Z M19.742,19.656 C19.915,19.266 19.898,18.839 19.859,18.548 C19.817,18.238 19.736,17.97 19.691,17.837 L18.43,18.262 C18.461,18.353 18.515,18.531 18.54,18.724 C18.568,18.934 18.55,19.064 18.526,19.118 L19.742,19.656 Z M6.463,14.558 C6.463,14.899 6.498,15.227 6.545,15.537 L7.86,15.338 C7.819,15.064 7.793,14.808 7.793,14.558 L6.463,14.558 Z M6.979,10.718 L8.616,10.718 L8.616,9.388 L6.979,9.388 L6.979,10.718 Z M19.775,11.757 C19.548,12.018 19.418,12.454 19.624,12.861 L20.81,12.26 C20.855,12.348 20.856,12.43 20.846,12.486 C20.837,12.54 20.814,12.589 20.778,12.63 L19.775,11.757 Z M18.712,17.387 C18.438,17.584 18.322,17.938 18.43,18.262 L19.691,17.837 C19.77,18.071 19.685,18.325 19.489,18.466 L18.712,17.387 Z"/>
</svg>

