<svg xmlns="http://www.w3.org/2000/svg" width="24" height="24" viewBox="0 0 24 24">
  <defs/>
  <path id="Union" d="M12,2.667 C17.155,2.667 21.333,6.845 21.333,12 C21.333,17.155 17.155,21.333 12,21.333 C6.845,21.333 2.667,17.155 2.667,12 C2.667,6.845 6.845,2.667 12,2.667 Z M4,12 C4,16.418 7.582,20 12,20 C16.418,20 20,16.418 20,12 C20,7.582 16.418,4 12,4 C7.582,4 4,7.582 4,12 Z M9.315,15.823 L9.314,15.827 C9.226,16.181 8.869,16.4 8.513,16.315 C8.155,16.23 7.933,15.871 8.018,15.513 L8.667,15.667 C8.02,15.513 8.018,15.513 8.018,15.512 L8.018,15.511 L8.019,15.509 L8.02,15.505 L8.023,15.494 C8.025,15.485 8.028,15.475 8.031,15.462 C8.038,15.437 8.048,15.405 8.061,15.365 C8.087,15.287 8.127,15.181 8.184,15.057 C8.297,14.809 8.483,14.483 8.777,14.158 C9.382,13.489 10.394,12.877 12,12.877 C13.606,12.877 14.618,13.489 15.223,14.158 C15.517,14.483 15.703,14.809 15.816,15.057 C15.873,15.181 15.913,15.287 15.939,15.365 C15.952,15.405 15.962,15.437 15.969,15.462 C15.972,15.475 15.975,15.485 15.977,15.494 L15.98,15.505 L15.981,15.509 L15.982,15.511 L15.982,15.512 C15.982,15.513 15.98,15.513 15.346,15.664 L15.982,15.513 C16.067,15.871 15.845,16.23 15.487,16.315 C15.131,16.4 14.774,16.181 14.686,15.827 Z M14.686,15.826 L14.686,15.827 L14.686,15.827 L14.686,15.827 L14.686,15.826 L14.686,15.826 L14.686,15.825 L14.686,15.824 L14.686,15.824 L14.686,15.824 L14.685,15.823 L14.685,15.822 L14.685,15.822 L14.685,15.822 L14.685,15.821 L14.685,15.82 L15.269,15.682 C14.689,15.819 14.685,15.821 14.685,15.821 L14.685,15.822 L14.685,15.822 L14.686,15.824 L14.686,15.824 L14.686,15.825 L14.686,15.825 L14.686,15.826 L14.685,15.823 C14.683,15.817 14.68,15.804 14.673,15.785 C14.661,15.748 14.639,15.688 14.605,15.613 C14.535,15.462 14.419,15.257 14.233,15.052 C13.878,14.659 13.224,14.21 12,14.21 C10.776,14.21 10.121,14.659 9.767,15.052 C9.581,15.257 9.465,15.462 9.395,15.613 C9.361,15.688 9.339,15.748 9.326,15.785 C9.321,15.802 9.317,15.814 9.315,15.821 Z M10.367,10.167 C10.367,10.811 9.897,11.333 9.317,11.333 C8.737,11.333 8.267,10.811 8.267,10.167 C8.267,9.522 8.737,9 9.317,9 C9.897,9 10.367,9.522 10.367,10.167 Z M14.717,11.333 C14.137,11.333 13.667,10.811 13.667,10.167 C13.667,9.522 14.137,9 14.717,9 C15.297,9 15.767,9.522 15.767,10.167 C15.767,10.811 15.297,11.333 14.717,11.333 Z"/>
</svg>

