<svg xmlns="http://www.w3.org/2000/svg" width="24" height="24" viewBox="0 0 24 24">
  <defs/>
  <path id="Union" d="M12,2.667 C17.155,2.667 21.333,6.845 21.333,12 C21.333,17.155 17.155,21.333 12,21.333 C6.845,21.333 2.667,17.155 2.667,12 C2.667,6.845 6.845,2.667 12,2.667 Z M4,12 C4,16.418 7.582,20 12,20 C16.418,20 20,16.418 20,12 C20,7.582 16.418,4 12,4 C7.582,4 4,7.582 4,12 Z M16.397,13.125 C17.49,12.864 18.164,12.703 18.164,13.087 C18.164,16.491 15.404,19.252 11.999,19.252 C8.594,19.252 5.834,16.491 5.834,13.087 C5.834,12.703 6.508,12.864 7.601,13.125 L7.601,13.125 C8.719,13.393 10.277,13.765 11.999,13.765 C13.721,13.765 15.279,13.393 16.397,13.125 Z M15.809,14.328 C14.948,14.554 13.628,14.899 11.992,14.899 C10.356,14.899 9.036,14.554 8.174,14.328 L8.174,14.328 C7.458,14.141 7.06,14.037 7.06,14.283 C7.06,16.643 10.645,16.749 11.992,16.749 C13.503,16.749 16.924,16.642 16.924,14.283 C16.924,14.037 16.525,14.141 15.809,14.328 Z M10.367,10.167 C10.367,10.811 9.897,11.333 9.317,11.333 C8.737,11.333 8.267,10.811 8.267,10.167 C8.267,9.522 8.737,9 9.317,9 C9.897,9 10.367,9.522 10.367,10.167 Z M14.717,11.333 C14.137,11.333 13.667,10.811 13.667,10.167 C13.667,9.522 14.137,9 14.717,9 C15.297,9 15.767,9.522 15.767,10.167 C15.767,10.811 15.297,11.333 14.717,11.333 Z"/>
</svg>

