<svg xmlns="http://www.w3.org/2000/svg" width="24" height="24" viewBox="0 0 24 24">
  <defs/>
  <path id="1" d="M12,20.911 Q11.552,20.911 10.87,20.493 Q10.863,20.489 10.857,20.485 Q2.835,15.319 2.835,9.743 Q2.835,7.192 4.42,5.508 Q5.994,3.835 8.322,3.835 Q10.627,3.835 12.003,5.598 Q13.392,3.835 15.686,3.835 Q18.014,3.835 19.585,5.508 Q21.165,7.192 21.165,9.743 Q21.165,15.319 13.138,20.488 Q12.471,20.911 12,20.911 Z M12,19.581 Q12.085,19.581 12.427,19.364 Q19.835,14.593 19.835,9.743 Q19.835,5.165 15.686,5.165 Q13.657,5.165 12.584,7.133 Q12.452,7.375 12.188,7.452 Q11.923,7.53 11.682,7.398 Q11.508,7.303 11.414,7.129 Q10.36,5.165 8.322,5.165 Q6.569,5.165 5.389,6.419 Q4.165,7.72 4.165,9.743 Q4.165,14.591 11.571,19.363 Q11.927,19.581 12,19.581 Z"/>
</svg>

