<svg xmlns="http://www.w3.org/2000/svg" width="24" height="24" viewBox="0 0 24 24">
  <defs/>
  <path id="Union" d="M12,2.667 C17.155,2.667 21.333,6.845 21.333,12 C21.333,17.155 17.155,21.333 12,21.333 C6.845,21.333 2.667,17.155 2.667,12 C2.667,6.845 6.845,2.667 12,2.667 Z M4,12 C4,16.418 7.582,20 12,20 C16.418,20 20,16.418 20,12 C20,7.582 16.418,4 12,4 C7.582,4 4,7.582 4,12 Z M12,14.5 C13.657,14.5 15.5,15.883 15.5,16.728 C15.5,17.257 14.78,17.125 13.836,16.951 L13.835,16.951 C13.269,16.847 12.621,16.728 12,16.728 C11.379,16.728 10.731,16.847 10.165,16.951 L10.164,16.951 C9.22,17.125 8.5,17.257 8.5,16.728 C8.5,15.883 10.343,14.5 12,14.5 Z M13.884,7.454 C13.884,7.205 14.077,6.966 14.474,6.887 C14.865,6.81 15.471,6.879 16.369,7.231 C16.829,7.411 17.229,7.741 17.527,8.082 C17.823,8.42 18.029,8.783 18.09,9.041 C18.105,9.106 18.086,9.167 18.059,9.212 C18.032,9.258 17.991,9.296 17.946,9.323 C17.858,9.376 17.721,9.4 17.607,9.309 C17.558,9.269 17.504,9.223 17.444,9.171 C17.14,8.911 16.686,8.522 15.973,8.278 C15.461,8.103 15.042,8.018 14.717,7.953 C14.639,7.937 14.566,7.922 14.499,7.908 C14.33,7.871 14.182,7.833 14.076,7.771 C14.021,7.739 13.971,7.698 13.936,7.642 C13.901,7.586 13.884,7.522 13.884,7.454 Z M10.108,7.454 C10.108,7.522 10.092,7.586 10.057,7.642 C10.022,7.698 9.972,7.739 9.917,7.771 C9.811,7.833 9.663,7.871 9.494,7.908 C9.427,7.922 9.354,7.937 9.276,7.953 C8.951,8.018 8.532,8.103 8.02,8.278 C7.305,8.523 6.849,8.914 6.546,9.174 L6.546,9.174 C6.512,9.203 6.479,9.231 6.449,9.257 C6.399,9.299 6.341,9.29 6.317,9.284 C6.288,9.277 6.262,9.263 6.241,9.251 C6.199,9.225 6.154,9.188 6.115,9.15 C6.075,9.112 6.037,9.068 6.009,9.026 C5.995,9.005 5.981,8.981 5.972,8.955 C5.964,8.933 5.951,8.886 5.972,8.837 C6.083,8.576 6.296,8.254 6.578,7.959 C6.861,7.664 7.219,7.39 7.624,7.231 C8.522,6.879 9.128,6.81 9.519,6.887 C9.916,6.966 10.108,7.205 10.108,7.454 Z M8.667,13 C8.114,13 7.667,12.403 7.667,11.667 C7.667,10.93 8.114,10.333 8.667,10.333 C9.219,10.333 9.667,10.93 9.667,11.667 C9.667,12.403 9.219,13 8.667,13 Z M16.333,11.667 C16.333,12.403 15.886,13 15.333,13 C14.781,13 14.333,12.403 14.333,11.667 C14.333,10.93 14.781,10.333 15.333,10.333 C15.886,10.333 16.333,10.93 16.333,11.667 Z"/>
</svg>

