<svg xmlns="http://www.w3.org/2000/svg" width="24" height="24" viewBox="0 0 24 24">
  <defs/>
  <path id="Union" d="M12,2.667 C17.155,2.667 21.333,6.845 21.333,12 C21.333,17.155 17.155,21.333 12,21.333 C6.845,21.333 2.667,17.155 2.667,12 C2.667,6.845 6.845,2.667 12,2.667 Z M4,12 C4,16.418 7.582,20 12,20 C16.418,20 20,16.418 20,12 C20,7.582 16.418,4 12,4 C7.582,4 4,7.582 4,12 Z M8.267,14.149 L15.767,14.149 C16.135,14.149 16.433,14.447 16.433,14.815 C16.433,15.183 16.135,15.482 15.767,15.482 L8.267,15.482 C7.898,15.482 7.6,15.183 7.6,14.815 C7.6,14.447 7.898,14.149 8.267,14.149 Z M14.717,11.667 C14.137,11.667 13.667,11.144 13.667,10.5 C13.667,9.856 14.137,9.333 14.717,9.333 C15.297,9.333 15.767,9.856 15.767,10.5 C15.767,11.144 15.297,11.667 14.717,11.667 Z M10.367,10.5 C10.367,11.144 9.897,11.667 9.317,11.667 C8.737,11.667 8.267,11.144 8.267,10.5 C8.267,9.856 8.737,9.333 9.317,9.333 C9.897,9.333 10.367,9.856 10.367,10.5 Z"/>
</svg>

