<svg xmlns="http://www.w3.org/2000/svg" width="24" height="24" viewBox="0 0 24 24">
  <defs/>
  <path id="Union" d="M15.748,2.306 C16.117,2.306 16.415,2.604 16.415,2.972 C16.415,3.164 16.368,3.782 15.75,4.187 C15.593,4.289 15.402,4.39 15.233,4.479 L15.172,4.511 C14.975,4.615 14.793,4.715 14.629,4.824 C14.284,5.055 14.166,5.237 14.149,5.397 C14.118,5.675 14.25,5.865 14.644,6.291 L14.69,6.341 L14.69,6.341 C15.021,6.696 15.589,7.305 15.432,8.211 C15.346,8.707 15.059,9.055 14.764,9.3 C14.499,9.52 14.181,9.693 13.934,9.828 L13.891,9.851 C13.606,10.006 13.418,10.115 13.292,10.229 C13.189,10.323 13.186,10.368 13.186,10.405 C13.186,10.773 12.887,11.071 12.519,11.071 C12.151,11.071 11.852,10.773 11.852,10.405 C11.852,10.056 11.966,9.771 12.128,9.542 C11.288,8.864 10.506,8.375 9.884,8.11 C9.543,7.965 9.284,7.901 9.108,7.891 C9.022,7.886 8.975,7.894 8.953,7.9 C8.943,7.931 8.929,8.011 8.956,8.178 C9,8.448 9.135,8.824 9.382,9.289 C9.873,10.212 10.736,11.356 11.863,12.484 C12.991,13.612 14.135,14.475 15.058,14.965 C15.523,15.213 15.899,15.348 16.169,15.391 C16.336,15.418 16.416,15.404 16.447,15.395 C16.456,15.364 16.469,15.285 16.444,15.122 C16.402,14.856 16.27,14.484 16.027,14.024 C15.864,13.715 15.982,13.332 16.291,13.168 C16.601,13.005 16.984,13.123 17.147,13.433 C17.423,13.955 17.623,14.467 17.695,14.926 C17.765,15.368 17.734,15.906 17.346,16.294 C17.201,16.439 17.036,16.534 16.862,16.593 C16.828,16.618 16.79,16.64 16.75,16.658 L6.827,21.214 C5.675,21.743 4.311,21.448 3.481,20.489 C2.733,19.625 2.572,18.399 3.073,17.372 L7.676,7.936 C7.688,7.607 7.786,7.268 8.053,7.001 C8.375,6.68 8.804,6.604 9.18,6.626 C9.559,6.648 9.969,6.769 10.381,6.944 C11.206,7.296 12.171,7.926 13.146,8.739 L13.24,8.688 L13.253,8.68 C13.539,8.524 13.752,8.408 13.912,8.274 C14.059,8.152 14.104,8.062 14.118,7.983 C14.154,7.779 14.073,7.638 13.665,7.197 L13.628,7.157 C13.287,6.79 12.721,6.18 12.823,5.251 C12.907,4.485 13.452,4.007 13.888,3.716 C14.115,3.564 14.352,3.437 14.549,3.333 L14.604,3.304 C14.787,3.207 14.919,3.137 15.019,3.071 C15.042,3.056 15.054,3.044 15.059,3.037 C15.065,3.029 15.07,3.021 15.073,3.012 C15.077,3.003 15.079,2.994 15.08,2.985 L15.082,2.972 C15.082,2.604 15.38,2.306 15.748,2.306 Z M14.463,16.084 C13.402,15.52 12.159,14.571 10.968,13.38 C9.777,12.189 8.828,10.946 8.264,9.884 C8.241,9.842 8.219,9.799 8.197,9.757 L6.7,12.827 C6.709,12.868 6.722,12.917 6.737,12.974 C6.788,13.165 6.871,13.438 6.995,13.755 C7.245,14.395 7.652,15.186 8.283,15.854 C8.914,16.522 9.698,16.986 10.342,17.284 C10.661,17.432 10.938,17.537 11.134,17.603 C11.231,17.636 11.308,17.66 11.358,17.675 C11.384,17.682 11.402,17.688 11.414,17.691 L11.426,17.694 L11.427,17.694 L11.422,17.711 L14.701,16.205 C14.622,16.167 14.543,16.126 14.463,16.084 Z M5.871,14.526 L4.212,17.927 C3.933,18.498 4.023,19.18 4.438,19.66 C4.9,20.193 5.658,20.357 6.299,20.063 L9.749,18.479 C9.021,18.138 8.09,17.592 7.314,16.77 C6.625,16.04 6.167,15.215 5.871,14.526 Z M10.384,4.963 L10.384,4.964 C10.398,5.021 10.41,5.075 10.422,5.125 C10.506,5.483 10.284,5.842 9.925,5.926 C9.567,6.01 9.208,5.788 9.124,5.43 L9.087,5.271 L9.087,5.271 C8.958,4.718 8.805,4.061 8.558,3.551 C8.424,3.274 8.293,3.11 8.184,3.03 C8.106,2.973 8.033,2.948 7.897,2.985 C7.648,3.052 7.387,3.141 7.159,3.253 C6.924,3.368 6.764,3.488 6.674,3.598 C6.598,3.691 6.577,3.766 6.589,3.859 C6.605,3.979 6.687,4.208 6.998,4.556 C7.243,4.831 7.219,5.253 6.944,5.498 C6.669,5.743 6.248,5.719 6.002,5.444 C5.593,4.984 5.33,4.514 5.267,4.03 C5.201,3.52 5.37,3.087 5.642,2.754 C5.9,2.438 6.247,2.215 6.571,2.056 C6.901,1.894 7.249,1.778 7.552,1.697 C8.092,1.552 8.58,1.667 8.972,1.955 C9.334,2.22 9.582,2.606 9.758,2.97 C10.075,3.624 10.262,4.432 10.384,4.963 Z M20.752,15.162 L20.753,15.162 L20.753,15.162 L20.753,15.162 L20.748,15.17 C20.732,15.196 20.678,15.282 20.598,15.449 C20.507,15.637 20.407,15.87 20.323,16.106 C20.291,16.193 20.263,16.276 20.239,16.356 L20.252,16.35 L20.278,16.338 C20.451,16.26 20.721,16.137 20.974,16.099 C21.117,16.077 21.34,16.067 21.566,16.177 C21.82,16.301 21.966,16.519 22.033,16.739 C22.215,17.334 22.054,18.046 21.878,18.565 C21.693,19.11 21.42,19.643 21.182,19.948 C20.956,20.239 20.538,20.291 20.247,20.065 C19.956,19.839 19.904,19.42 20.13,19.13 C20.249,18.977 20.462,18.589 20.615,18.136 C20.686,17.928 20.732,17.743 20.757,17.585 C20.581,17.665 20.328,17.779 20.087,17.832 C19.83,17.888 19.322,17.929 18.982,17.481 C18.827,17.277 18.802,17.048 18.797,16.921 C18.791,16.775 18.808,16.626 18.832,16.494 C18.879,16.227 18.969,15.929 19.068,15.654 C19.168,15.376 19.286,15.098 19.398,14.868 C19.496,14.665 19.627,14.419 19.764,14.268 C20.01,13.995 20.432,13.974 20.705,14.221 C20.978,14.468 20.999,14.889 20.752,15.162 Z M18.987,11.827 C18.52,11.698 17.854,11.586 17.065,11.663 C16.996,11.67 16.818,11.717 16.534,11.825 C16.27,11.926 15.97,12.056 15.682,12.189 C15.396,12.321 15.129,12.451 14.933,12.549 C14.835,12.597 14.755,12.638 14.7,12.666 L14.637,12.698 L14.622,12.706 L14.617,12.709 C14.29,12.879 13.888,12.752 13.718,12.425 C13.548,12.099 13.675,11.696 14.001,11.526 L14.008,11.523 L14.026,11.513 L14.094,11.479 C14.152,11.449 14.236,11.406 14.338,11.355 C14.542,11.254 14.822,11.117 15.125,10.978 C15.426,10.839 15.757,10.694 16.06,10.579 C16.344,10.471 16.67,10.363 16.935,10.337 C17.92,10.24 18.754,10.379 19.344,10.543 C19.639,10.625 19.875,10.713 20.041,10.784 C20.124,10.819 20.189,10.849 20.236,10.872 C20.26,10.884 20.279,10.894 20.293,10.901 L20.311,10.91 L20.317,10.913 L20.319,10.915 L20.32,10.915 C20.32,10.915 20.319,10.92 20.003,11.495 L20.321,10.916 C20.644,11.093 20.762,11.498 20.584,11.821 C20.408,12.143 20.004,12.261 19.682,12.086 L19.678,12.084 C19.674,12.082 19.665,12.077 19.651,12.07 C19.624,12.057 19.58,12.037 19.521,12.011 C19.401,11.961 19.22,11.892 18.987,11.827 Z M17.971,6.342 C18.113,6.201 18.343,6.201 18.485,6.342 L19.149,7.007 C19.291,7.149 19.291,7.379 19.149,7.521 L18.485,8.185 C18.343,8.327 18.113,8.327 17.971,8.185 L17.306,7.521 C17.164,7.379 17.164,7.149 17.306,7.007 Z M21.878,10.535 C21.441,10.535 21.088,10.182 21.088,9.746 C21.088,9.31 21.441,8.957 21.878,8.957 C22.313,8.957 22.667,9.31 22.667,9.746 C22.667,10.182 22.313,10.535 21.878,10.535 Z M19.928,3.867 C19.492,3.867 19.139,3.514 19.139,3.078 C19.139,2.642 19.492,2.289 19.928,2.289 C20.364,2.289 20.717,2.642 20.717,3.078 C20.717,3.514 20.364,3.867 19.928,3.867 Z M5.219,6.774 C5.36,6.633 5.59,6.633 5.732,6.774 L6.161,7.203 C6.303,7.345 6.303,7.575 6.161,7.717 L5.732,8.146 C5.59,8.288 5.36,8.288 5.219,8.146 L4.789,7.717 C4.648,7.575 4.648,7.345 4.789,7.203 Z M12.505,2.289 C12.505,2.633 12.226,2.911 11.883,2.911 C11.539,2.911 11.26,2.633 11.26,2.289 C11.26,1.945 11.539,1.667 11.883,1.667 C12.226,1.667 12.505,1.945 12.505,2.289 Z M20.129,16.867 C20.129,16.876 20.13,16.875 20.129,16.865 Z"/>
</svg>

