<svg xmlns="http://www.w3.org/2000/svg" width="24" height="24" viewBox="0 0 24 24">
  <defs/>
  <path id="Path" d="M5.256,13.062 Q5.256,18.582 8.493,18.582 L15.487,18.582 Q17.018,18.582 17.774,17.353 Q18.627,15.967 18.627,13.062 L19.96,13.062 Q19.96,19.915 15.487,19.915 L8.493,19.915 Q3.922,19.915 3.922,13.062 Z"/>
  <path id="Path 2" d="M17.593,12.88 L17.593,4.333 Q17.593,3.643 17.105,3.155 Q16.616,2.667 15.926,2.667 L14.361,2.667 Q13.162,2.667 12.852,3.905 L11.559,3.582 Q12.121,1.333 14.361,1.333 L15.926,1.333 Q18.926,1.333 18.926,4.333 L18.926,12.88 Z"/>
  <path id="Path 3" d="M8.597,6.566 Q8.957,3.626 12.063,3.626 Q15.165,3.626 15.537,6.562 Q15.596,7.024 15.273,7.359 Q14.977,7.667 14.543,7.667 L9.592,7.667 Q9.159,7.667 8.863,7.361 Q8.541,7.027 8.597,6.566 Z M9.996,6.333 L14.137,6.333 Q13.761,4.959 12.063,4.959 Q10.365,4.959 9.996,6.333 Z"/>
  <path id="Path 4" d="M7.336,19.243 L6.42,20.978 Q6.291,21.222 6.028,21.304 Q5.764,21.385 5.52,21.256 Q5.275,21.127 5.194,20.864 Q5.112,20.6 5.241,20.356 L6.156,18.621 Q6.285,18.377 6.549,18.295 Q6.813,18.213 7.057,18.342 Q7.301,18.471 7.383,18.735 Q7.465,18.999 7.336,19.243 Z"/>
  <path id="Path 4 Copy" d="M18.147,18.918 L18.877,20.367 Q19.001,20.613 18.915,20.875 Q18.828,21.138 18.582,21.262 Q18.335,21.386 18.073,21.3 Q17.811,21.213 17.686,20.967 L16.956,19.518 Q16.832,19.271 16.919,19.009 Q17.005,18.747 17.252,18.623 Q17.498,18.498 17.761,18.585 Q18.023,18.671 18.147,18.918 Z"/>
  <path id="Path 291" d="M3.333,12.395 L20.5,12.395 Q20.776,12.395 20.971,12.591 Q21.167,12.786 21.167,13.062 Q21.167,13.338 20.971,13.534 Q20.776,13.729 20.5,13.729 L3.333,13.729 Q3.057,13.729 2.862,13.534 Q2.667,13.338 2.667,13.062 Q2.667,12.786 2.862,12.591 Q3.057,12.395 3.333,12.395 Z"/>
  <path id="Path 292" d="M9,10.472 L9,9.139 Q9,8.862 9.195,8.667 Q9.391,8.472 9.667,8.472 Q9.943,8.472 10.138,8.667 Q10.333,8.862 10.333,9.139 L10.333,10.472 Q10.333,10.748 10.138,10.943 Q9.943,11.139 9.667,11.139 Q9.391,11.139 9.195,10.943 Q9,10.748 9,10.472 Z"/>
  <path id="Path 292 Copy" d="M11.245,10.472 L11.245,9.139 Q11.245,8.862 11.44,8.667 Q11.636,8.472 11.912,8.472 Q12.188,8.472 12.383,8.667 Q12.578,8.862 12.578,9.139 L12.578,10.472 Q12.578,10.748 12.383,10.943 Q12.188,11.139 11.912,11.139 Q11.636,11.139 11.44,10.943 Q11.245,10.748 11.245,10.472 Z"/>
  <path id="Path 292 Copy 2" d="M13.5,10.472 L13.5,9.139 Q13.5,8.862 13.695,8.667 Q13.891,8.472 14.167,8.472 Q14.443,8.472 14.638,8.667 Q14.833,8.862 14.833,9.139 L14.833,10.472 Q14.833,10.748 14.638,10.943 Q14.443,11.139 14.167,11.139 Q13.891,11.139 13.695,10.943 Q13.5,10.748 13.5,10.472 Z"/>
</svg>

