<svg xmlns="http://www.w3.org/2000/svg" width="24" height="24" viewBox="0 0 24 24">
  <defs/>
  <path id="Subtract" d="M21.333,12 C21.333,16.316 18.404,19.948 14.425,21.015 C13.847,21.568 13.067,21.909 12.2,21.909 C11.402,21.909 10.678,21.62 10.118,21.143 C5.865,20.272 2.667,16.51 2.667,12 C2.667,6.845 6.845,2.667 12,2.667 C17.155,2.667 21.333,6.845 21.333,12 Z M4,12 C4,15.378 6.094,18.267 9.054,19.44 C8.986,19.174 8.95,18.895 8.95,18.609 L8.95,17.323 C7.762,16.842 7,16.029 7,14.87 C7,14.132 7.758,14.323 8.942,14.621 L8.942,14.621 C9.826,14.844 10.947,15.126 12.167,15.126 C13.386,15.126 14.507,14.844 15.391,14.621 L15.392,14.621 C16.575,14.323 17.333,14.132 17.333,14.87 C17.333,16.007 16.6,16.811 15.45,17.296 L15.45,18.609 C15.45,18.828 15.429,19.042 15.389,19.249 C18.113,17.973 20,15.207 20,12 C20,7.582 16.418,4 12,4 C7.582,4 4,7.582 4,12 Z M10.439,15.967 C10.229,15.933 10.033,16.093 10.033,16.306 L10.033,18.726 C10.033,19.923 11.003,20.893 12.2,20.893 C13.397,20.893 14.367,19.923 14.367,18.726 L14.367,16.3 C14.367,16.09 14.173,15.93 13.965,15.963 C13.544,16.029 12.849,16.119 12.167,16.119 C11.499,16.119 10.843,16.033 10.439,15.967 Z M10.33,10.097 C10.781,10.329 10.817,10.96 10.396,11.243 L7.513,13.176 C7.333,13.296 7.117,13.086 7.232,12.903 L8.405,11.043 C8.565,10.789 8.536,10.461 8.335,10.239 L7.078,8.855 C6.928,8.69 7.119,8.441 7.317,8.543 Z M13.604,11.243 C13.183,10.96 13.219,10.329 13.67,10.097 L16.683,8.543 C16.881,8.441 17.072,8.69 16.922,8.855 L15.665,10.239 C15.464,10.461 15.435,10.789 15.595,11.043 L16.768,12.903 C16.883,13.086 16.667,13.296 16.487,13.176 Z"/>
</svg>

