<svg xmlns="http://www.w3.org/2000/svg" width="24" height="24" viewBox="0 0 24 24" version="1.1" id="svg1">
   <defs/>
   <path id="Path 52" d="M5,15.417 L5,18.199 Q5,19 5.801,19 L18.199,19 Q19,19 19,18.199 L19,15.333 L20.333,15.333 L20.333,18.199 Q20.333,20.333 18.199,20.333 L5.801,20.333 Q3.667,20.333 3.667,18.199 L3.667,15.417 Z"/>
   <path id="Rectangle" d="M4.667,10.333 L19.333,10.333 Q21.667,10.333 21.667,12.667 L21.667,13.667 Q21.667,14.633 20.983,15.317 Q20.3,16 19.333,16 L4.667,16 Q2.333,16 2.333,13.667 L2.333,12.667 Q2.333,11.7 3.017,11.017 Q3.7,10.333 4.667,10.333 Z M4.667,11.667 Q3.667,11.667 3.667,12.667 L3.667,13.667 Q3.667,14.667 4.667,14.667 L19.333,14.667 Q20.333,14.667 20.333,13.667 L20.333,12.667 Q20.333,11.667 19.333,11.667 Z"/>
   <path id="Path 46 Copy" fill="#000000" d="M3.667,10.667 Q3.667,7.767 5.717,5.717 Q7.767,3.667 10.667,3.667 L13.333,3.667 Q16.233,3.667 18.283,5.717 Q20.333,7.767 20.333,10.667 L19,10.667 Q19,8.319 17.34,6.66 Q15.681,5 13.333,5 L10.667,5 Q8.319,5 6.66,6.66 Q5,8.319 5,10.667 Z"/>
   <path id="Oval" d="M9.667,8.167 A0.833 0.833 0 1 1 8,8.167 A0.833 0.833 0 1 1 9.667,8.167 Z"/>
   <path id="Oval Copy" d="M12.867,7.167 A0.833 0.833 0 1 1 11.2,7.167 A0.833 0.833 0 1 1 12.867,7.167 Z"/>
   <path id="Oval Copy 2" d="M16,8.167 A0.833 0.833 0 1 1 14.333,8.167 A0.833 0.833 0 1 1 16,8.167 Z"/>
 </svg>
 
 