<svg xmlns="http://www.w3.org/2000/svg" width="24" height="24" viewBox="0 0 24 24">
  <defs/>
  <path id="Path" d="M18.341,17.99 Q15.8,16.34 11.667,16.34 Q4.333,16.34 4.333,20.34 Q4.333,20.617 4.138,20.812 Q3.943,21.007 3.667,21.007 Q3.391,21.007 3.195,20.812 Q3,20.617 3,20.34 Q3,17.976 5.454,16.472 Q7.846,15.007 11.667,15.007 Q16.195,15.007 19.067,16.872 Q19.298,17.022 19.356,17.292 Q19.413,17.562 19.263,17.794 Q19.112,18.026 18.842,18.083 Q18.572,18.14 18.341,17.99 Z"/>
  <path id="Path_2" d="M2.162,10.917 Q1.563,4.136 6.708,2.337 Q11.936,0.509 16.162,6.278 Q16.522,6.77 16.241,7.315 Q15.98,7.818 15.412,7.867 Q14.75,7.923 14.301,8.077 Q13.798,8.249 13.262,8.706 Q12.782,9.115 12.169,9.071 Q10.466,8.947 9.254,9.361 Q8.19,9.725 7.267,10.761 Q6.643,11.462 5.737,11.227 Q4.91,11.013 4.538,11.14 Q4.243,11.241 3.9,11.55 Q3.454,11.951 2.876,11.78 Q2.221,11.586 2.162,10.917 Z M3.42,10.273 Q3.767,10.03 4.117,9.91 Q4.859,9.657 6.062,9.968 Q6.201,10.004 6.297,9.896 Q7.446,8.606 8.834,8.131 Q10.296,7.631 12.263,7.774 Q12.344,7.78 12.418,7.717 Q13.143,7.099 13.881,6.847 Q14.288,6.707 14.798,6.63 Q11.271,2.118 7.137,3.564 Q3.143,4.961 3.42,10.273 Z"/>
  <path id="Path 2" d="M5.937,10.714 Q5.023,9.077 5.375,6.995 Q5.703,5.047 6.362,3.441 L6.362,3.441 Q6.452,3.223 6.668,3.133 Q6.885,3.042 7.102,3.131 Q7.319,3.221 7.409,3.437 Q7.5,3.654 7.411,3.871 L7.411,3.871 Q6.8,5.361 6.492,7.183 Q6.207,8.873 6.927,10.161 Q7.041,10.366 6.977,10.592 Q6.913,10.818 6.709,10.932 Q6.504,11.047 6.278,10.983 Q6.052,10.919 5.937,10.714 Z"/>
  <path id="Path 3" d="M11.727,8.364 Q10.994,6.765 9.771,5.569 Q8.573,4.398 6.727,3.855 Q6.502,3.789 6.389,3.583 Q6.277,3.377 6.343,3.151 Q6.409,2.926 6.615,2.814 Q6.821,2.702 7.047,2.768 Q9.164,3.391 10.563,4.759 Q11.936,6.102 12.757,7.891 Q12.855,8.105 12.774,8.325 Q12.692,8.545 12.479,8.643 Q12.265,8.741 12.045,8.659 Q11.825,8.577 11.727,8.364 Z"/>
  <path id="Path 4" d="M10.035,8.448 L11.972,15.569 Q12.045,15.835 11.908,16.075 Q11.77,16.314 11.504,16.387 Q11.238,16.459 10.998,16.322 Q10.758,16.185 10.686,15.918 L8.749,8.798 Q8.676,8.532 8.814,8.292 Q8.951,8.053 9.217,7.98 Q9.484,7.908 9.723,8.045 Q9.963,8.182 10.035,8.448 Z"/>
  <path id="Path_3" d="M7.356,19.377 Q7.683,19.558 8.103,20.01 Q8.508,20.445 8.809,20.445 Q9.194,20.445 9.512,20.004 Q10.141,19.128 11.015,19.128 Q11.872,19.128 12.539,20.029 Q12.88,20.491 13.249,20.449 Q13.697,20.399 14.076,19.927 Q14.719,19.128 15.538,19.128 Q16.366,19.128 17.126,20.004 Q17.508,20.445 17.753,20.445 Q17.975,20.445 18.283,20.031 Q18.954,19.128 19.786,19.128 Q21.185,19.128 21.734,20.096 Q21.857,20.313 21.791,20.552 Q21.725,20.792 21.508,20.914 Q21.292,21.037 21.053,20.971 Q20.813,20.905 20.69,20.688 Q20.486,20.328 19.786,20.328 Q19.557,20.328 19.247,20.747 Q18.579,21.645 17.753,21.645 Q16.96,21.645 16.219,20.79 Q15.818,20.328 15.538,20.328 Q15.294,20.328 15.011,20.679 Q14.323,21.535 13.383,21.642 Q12.327,21.761 11.574,20.743 Q11.267,20.328 11.015,20.328 Q10.756,20.328 10.486,20.704 Q9.81,21.645 8.809,21.645 Q7.985,21.645 7.224,20.827 Q6.934,20.515 6.775,20.427 Q6.557,20.306 6.488,20.067 Q6.42,19.829 6.54,19.611 Q6.661,19.394 6.899,19.325 Q7.138,19.256 7.356,19.377 Z"/>
</svg>

