<svg xmlns="http://www.w3.org/2000/svg" width="24" height="24" viewBox="0 0 24 24">
  <defs/>
  <path id="Vector" d="M9.822,3.675 C10.19,3.675 10.487,3.973 10.487,4.34 C10.487,4.707 10.19,5.005 9.822,5.005 L9.822,3.675 Z M6.986,4.34 L6.98,3.675 L6.986,3.675 L6.986,4.34 Z M8.616,13.282 C8.984,13.282 9.281,13.58 9.281,13.947 C9.281,14.314 8.984,14.612 8.616,14.612 L8.616,13.282 Z M6.949,4.341 L6.989,5.005 C6.959,5.007 6.929,5.007 6.9,5.004 L6.949,4.341 Z M6.95,13.947 L6.961,14.612 L6.95,14.612 L6.95,13.947 Z M6.979,13.947 L6.973,13.282 L6.979,13.282 L6.979,13.947 Z M6.976,13.947 L6.965,13.282 L6.97,13.282 L6.976,13.947 Z M6.972,4.34 L6.947,3.676 C6.953,3.676 6.96,3.675 6.966,3.675 L6.972,4.34 Z M6.957,4.341 L6.918,3.677 L6.931,3.676 L6.957,4.341 Z M19.073,14.633 L19.073,15.298 L19.069,15.298 L19.073,14.633 Z M15.565,14.614 L15.565,13.949 L15.568,13.949 L15.565,14.614 Z M19.756,8.785 L19.297,9.267 C19.076,9.055 19.027,8.72 19.18,8.454 L19.756,8.785 Z M9.822,5.005 L6.986,5.005 L6.986,3.675 L9.822,3.675 L9.822,5.005 Z M6.9,5.004 C6.9,5.004 6.898,5.004 6.896,5.004 C6.893,5.004 6.89,5.004 6.885,5.004 C6.875,5.004 6.862,5.005 6.845,5.006 C6.812,5.008 6.768,5.014 6.715,5.023 C6.608,5.042 6.474,5.076 6.321,5.13 C6.016,5.239 5.657,5.424 5.315,5.714 C4.65,6.277 3.995,7.28 3.995,9.056 L2.665,9.056 C2.665,6.904 3.481,5.524 4.456,4.699 C4.933,4.295 5.436,4.034 5.873,3.878 C6.294,3.728 6.703,3.656 6.999,3.678 L6.9,5.004 Z M3.995,9.056 C3.995,11.159 4.617,12.17 5.214,12.673 C5.833,13.194 6.557,13.282 6.95,13.282 L6.95,14.612 C6.398,14.612 5.312,14.495 4.357,13.69 C3.38,12.867 2.665,11.432 2.665,9.056 L3.995,9.056 Z M6.94,13.282 L6.965,13.282 L6.986,14.612 L6.961,14.612 L6.94,13.282 Z M6.984,14.612 L6.981,14.612 L6.97,13.282 L6.973,13.282 L6.984,14.612 Z M6.992,5.005 L6.978,5.005 L6.966,3.675 L6.98,3.675 L6.992,5.005 Z M6.91,3.678 L6.918,3.677 L6.996,5.005 L6.989,5.005 L6.91,3.678 Z M6.998,5.005 L6.982,5.005 L6.931,3.676 L6.947,3.676 L6.998,5.005 Z M19.069,15.298 L15.561,15.279 L15.568,13.949 L19.076,13.968 L19.069,15.298 Z M12.959,21.529 C12.398,20.485 11.395,18.794 10.456,17.537 L11.522,16.741 C12.514,18.07 13.552,19.822 14.131,20.9 L12.959,21.529 Z M10.456,17.537 C9.598,16.387 8.557,14.884 7.772,13.731 L8.871,12.983 C9.654,14.133 10.681,15.616 11.522,16.741 L10.456,17.537 Z M15.295,15.778 C15.454,16.446 15.809,17.282 16.067,17.883 L14.845,18.408 C14.598,17.832 14.192,16.887 14.001,16.086 L15.295,15.778 Z M16.067,17.883 C16.345,18.53 16.627,19.256 16.742,20.131 L15.424,20.305 C15.332,19.615 15.109,19.024 14.845,18.408 L16.067,17.883 Z M19.489,5.534 C19.683,5.674 20.358,6.185 20.645,6.917 L19.407,7.403 C19.346,7.248 19.226,7.083 19.076,6.928 C18.931,6.778 18.785,6.666 18.712,6.613 L19.489,5.534 Z M13.053,2.695 C13.846,2.677 14.556,2.665 15.011,2.665 L15.011,3.995 C14.572,3.995 13.875,4.007 13.082,4.025 L13.053,2.695 Z M15.011,2.665 C15.676,2.665 16.524,2.709 17.2,2.751 L17.116,4.079 C16.445,4.036 15.632,3.995 15.011,3.995 L15.011,2.665 Z M7.793,9.442 C7.793,10.709 8.164,11.944 8.871,12.983 L7.772,13.731 C6.91,12.465 6.463,10.968 6.463,9.442 L7.793,9.442 Z M15.229,22.622 C14.277,22.814 13.4,22.35 12.959,21.529 L14.131,20.9 C14.315,21.241 14.629,21.386 14.967,21.319 L15.229,22.622 Z M14.967,21.319 C15.135,21.285 15.249,21.191 15.33,21.03 C15.419,20.852 15.462,20.593 15.424,20.305 L16.742,20.131 C16.808,20.626 16.751,21.164 16.518,21.627 C16.277,22.107 15.847,22.498 15.229,22.622 L14.967,21.319 Z M15.565,15.279 C15.456,15.279 15.39,15.322 15.344,15.39 C15.291,15.47 15.254,15.607 15.295,15.778 L14.001,16.086 C13.882,15.586 13.963,15.064 14.238,14.652 C14.52,14.229 14.993,13.949 15.565,13.949 L15.565,15.279 Z M18.526,4.882 C18.322,4.422 17.746,4.119 17.116,4.079 L17.2,2.751 C18.09,2.808 19.257,3.249 19.742,4.344 L18.526,4.882 Z M6.545,8.463 C7.056,5.102 9.777,2.768 13.053,2.695 L13.082,4.025 C10.452,4.083 8.274,5.942 7.86,8.662 L6.545,8.463 Z M19.073,13.968 C19.527,13.968 19.984,13.553 19.995,12.944 L21.325,12.968 C21.302,14.206 20.344,15.298 19.073,15.298 L19.073,13.968 Z M20.778,11.37 C21.031,11.661 21.339,12.186 21.325,12.968 L19.995,12.944 C20.002,12.551 19.855,12.335 19.775,12.243 L20.778,11.37 Z M21.226,10.278 C21.238,10.585 21.155,10.893 21.076,11.123 C20.992,11.365 20.888,11.587 20.81,11.74 L19.624,11.139 C19.686,11.017 19.761,10.853 19.819,10.688 C19.88,10.51 19.899,10.389 19.897,10.331 L21.226,10.278 Z M19.756,8.785 C20.215,8.304 20.215,8.304 20.215,8.304 C20.215,8.304 20.216,8.305 20.216,8.305 C20.216,8.305 20.216,8.305 20.216,8.305 C20.217,8.306 20.217,8.306 20.218,8.307 C20.219,8.308 20.22,8.309 20.221,8.31 C20.224,8.313 20.228,8.316 20.232,8.32 C20.24,8.329 20.252,8.34 20.265,8.354 C20.292,8.381 20.329,8.42 20.373,8.469 C20.459,8.565 20.575,8.703 20.692,8.871 C20.914,9.188 21.203,9.696 21.226,10.278 L19.897,10.331 C19.889,10.132 19.775,9.88 19.602,9.633 C19.522,9.519 19.442,9.424 19.383,9.357 C19.353,9.324 19.329,9.299 19.314,9.284 C19.306,9.276 19.301,9.27 19.298,9.267 C19.297,9.266 19.296,9.265 19.296,9.265 C19.296,9.265 19.296,9.265 19.296,9.265 C19.296,9.265 19.296,9.266 19.297,9.266 C19.297,9.266 19.297,9.266 19.297,9.266 C19.297,9.266 19.297,9.266 19.297,9.266 C19.297,9.267 19.297,9.267 19.756,8.785 Z M20.645,6.917 C20.866,7.478 20.74,8.07 20.627,8.43 C20.565,8.625 20.494,8.792 20.438,8.911 C20.41,8.97 20.386,9.019 20.367,9.054 C20.358,9.071 20.35,9.085 20.345,9.096 C20.342,9.101 20.339,9.106 20.337,9.109 C20.336,9.111 20.335,9.112 20.335,9.114 C20.334,9.114 20.334,9.115 20.334,9.115 C20.334,9.116 20.333,9.116 20.333,9.116 C20.333,9.116 20.333,9.116 20.333,9.116 C20.333,9.117 20.333,9.117 19.756,8.785 C19.18,8.454 19.18,8.454 19.18,8.454 C19.18,8.454 19.179,8.455 19.179,8.455 C19.179,8.455 19.179,8.455 19.179,8.455 C19.179,8.455 19.179,8.456 19.179,8.456 C19.178,8.456 19.178,8.456 19.178,8.456 C19.178,8.456 19.179,8.455 19.18,8.454 C19.182,8.45 19.186,8.443 19.191,8.434 C19.201,8.415 19.216,8.384 19.234,8.345 C19.272,8.266 19.319,8.155 19.358,8.03 C19.447,7.749 19.456,7.528 19.407,7.403 L20.645,6.917 Z M19.742,4.344 C19.915,4.734 19.898,5.161 19.859,5.452 C19.817,5.762 19.736,6.03 19.691,6.163 L18.43,5.739 C18.461,5.647 18.515,5.469 18.54,5.276 C18.568,5.066 18.55,4.936 18.526,4.882 L19.742,4.344 Z M6.463,9.442 C6.463,9.101 6.498,8.773 6.545,8.463 L7.86,8.662 C7.819,8.936 7.793,9.192 7.793,9.442 L6.463,9.442 Z M6.979,13.282 L8.616,13.282 L8.616,14.612 L6.979,14.612 L6.979,13.282 Z M19.775,12.243 C19.548,11.982 19.418,11.546 19.624,11.139 L20.81,11.74 C20.855,11.652 20.856,11.57 20.846,11.514 C20.837,11.46 20.814,11.411 20.778,11.37 L19.775,12.243 Z M18.712,6.613 C18.438,6.416 18.322,6.062 18.43,5.739 L19.691,6.163 C19.77,5.929 19.685,5.675 19.489,5.534 L18.712,6.613 Z"/>
</svg>

