<svg xmlns="http://www.w3.org/2000/svg" width="24" height="24" viewBox="0 0 24 24">
  <defs/>
  <path id="Rectangle" d="M3,9.667 Q3,8.424 3.879,7.545 Q4.757,6.667 6,6.667 L18,6.667 Q21,6.667 21,9.667 L21,17.667 Q21,18.909 20.121,19.788 Q19.243,20.667 18,20.667 L6,20.667 Q3,20.667 3,17.667 L3,14.913 Z M4.333,9.667 L4.333,17.667 Q4.333,19.333 6,19.333 L18,19.333 Q18.69,19.333 19.179,18.845 Q19.667,18.357 19.667,17.667 L19.667,9.667 Q19.667,8.976 19.179,8.488 Q18.69,8 18,8 L6,8 Q5.31,8 4.822,8.488 Q4.333,8.976 4.333,9.667 Z"/>
  <path id="Path 144" d="M3,11.5 L9.293,11.5 L15.213,11.5 L21,11.5 L21,12.833 L15.213,12.833 L9.293,12.833 L3,12.833 L3,11.5 Z"/>
  <path id="Path 145" d="M7.167,7 L7.167,5.833 Q7.167,4.729 7.948,3.948 Q8.729,3.167 9.833,3.167 L14.167,3.167 Q16.833,3.167 16.833,5.833 L16.833,7 Q16.833,7.276 16.638,7.471 Q16.443,7.667 16.167,7.667 Q15.89,7.667 15.695,7.471 Q15.5,7.276 15.5,7 L15.5,5.833 Q15.5,4.5 14.167,4.5 L9.833,4.5 Q9.281,4.5 8.89,4.891 Q8.5,5.281 8.5,5.833 L8.5,7 Q8.5,7.276 8.305,7.471 Q8.109,7.667 7.833,7.667 Q7.557,7.667 7.362,7.471 Q7.167,7.276 7.167,7 Z"/>
</svg>

