<svg xmlns="http://www.w3.org/2000/svg" width="24" height="24" viewBox="0 0 24 24">
  <defs/>
  <path id="Oval" d="M21.333,12 Q21.333,15.866 18.6,18.6 Q15.866,21.333 12,21.333 Q8.134,21.333 5.4,18.6 Q2.667,15.866 2.667,12 Q2.667,8.134 5.4,5.4 Q8.134,2.667 12,2.667 Q15.866,2.667 18.6,5.4 Q21.333,8.134 21.333,12 Z M20,12 Q20,8.686 17.657,6.343 Q15.314,4 12,4 Q8.686,4 6.343,6.343 Q4,8.686 4,12 Q4,15.314 6.343,17.657 Q8.686,20 12,20 Q15.314,20 17.657,17.657 Q20,15.314 20,12 Z"/>
  <path id="Combined Shape" d="M12,17.5 C9.239,17.5 7,16.306 7,14.833 C7,13.361 9.239,12.167 12,12.167 C14.761,12.167 17,13.361 17,14.833 C17,16.306 14.761,17.5 12,17.5 Z M12,15.233 C14.209,15.233 16,14.771 16,14.2 C16,13.629 14.209,13.167 12,13.167 C9.791,13.167 8,13.629 8,14.2 C8,14.771 9.791,15.233 12,15.233 Z"/>
  <path id="Rectangle" d="M13.667,10 C13.667,9.448 14.114,9 14.667,9 C15.219,9 15.667,9.448 15.667,10 L15.667,10.667 C15.667,10.851 15.517,11 15.333,11 L14,11 C13.816,11 13.667,10.851 13.667,10.667 L13.667,10 Z"/>
  <path id="Rectangle Copy" d="M8.333,10 C8.333,9.448 8.781,9 9.333,9 C9.886,9 10.333,9.448 10.333,10 L10.333,10.667 C10.333,10.851 10.184,11 10,11 L8.667,11 C8.483,11 8.333,10.851 8.333,10.667 L8.333,10 Z"/>
</svg>

