<svg xmlns="http://www.w3.org/2000/svg" width="24" height="24" viewBox="0 0 24 24">
  <defs/>
  <path id="Oval" d="M21.333,12 Q21.333,15.866 18.6,18.6 Q15.866,21.333 12,21.333 Q8.134,21.333 5.4,18.6 Q2.667,15.866 2.667,12 Q2.667,8.134 5.4,5.4 Q8.134,2.667 12,2.667 Q15.866,2.667 18.6,5.4 Q21.333,8.134 21.333,12 Z M20,12 Q20,8.686 17.657,6.343 Q15.314,4 12,4 Q8.686,4 6.343,6.343 Q4,8.686 4,12 Q4,15.314 6.343,17.657 Q8.686,20 12,20 Q15.314,20 17.657,17.657 Q20,15.314 20,12 Z"/>
  <path id="Path 265" d="M8.667,11.167 L15.333,11.167 Q15.679,11.167 15.923,11.411 Q16.167,11.655 16.167,12 Q16.167,12.345 15.923,12.589 Q15.679,12.833 15.333,12.833 L8.667,12.833 Q8.322,12.833 8.077,12.589 Q7.833,12.345 7.833,12 Q7.833,11.655 8.077,11.411 Q8.322,11.167 8.667,11.167 Z"/>
</svg>

