<svg xmlns="http://www.w3.org/2000/svg" width="24" height="24" viewBox="0 0 24 24">
  <defs/>
  <path id="Oval" d="M21.333,12 Q21.333,15.866 18.6,18.6 Q15.866,21.333 12,21.333 Q8.134,21.333 5.4,18.6 Q2.667,15.866 2.667,12 Q2.667,8.134 5.4,5.4 Q8.134,2.667 12,2.667 Q15.866,2.667 18.6,5.4 Q21.333,8.134 21.333,12 Z M20,12 Q20,8.686 17.657,6.343 Q15.314,4 12,4 Q8.686,4 6.343,6.343 Q4,8.686 4,12 Q4,15.314 6.343,17.657 Q8.686,20 12,20 Q15.314,20 17.657,17.657 Q20,15.314 20,12 Z"/>
  <path id="Path" d="M3.637,9.341 L6.839,8.612 L7.024,9.424 L3.822,10.154 L3.637,9.341 Z"/>
  <path id="Path 2" d="M7.72,4.733 L8.014,6.487 L7.192,6.625 L6.898,4.871 L7.72,4.733 Z"/>
  <path id="Path 3" d="M9.453,6.482 L14.054,4.193 L14.425,4.94 L9.824,7.228 L9.453,6.482 Z"/>
  <path id="Path 4" d="M15.779,10.6 L16.063,5.655 L16.895,5.703 L16.611,10.648 L15.779,10.6 Z"/>
  <path id="Path 5" d="M10.124,9.013 L13.828,10.973 L13.438,11.71 L9.734,9.75 L10.124,9.013 Z"/>
  <path id="Path 6" d="M20.691,12.552 L18.027,12.887 L17.923,12.06 L20.587,11.726 L20.691,12.552 Z"/>
  <path id="Path 7" d="M16.063,18.834 L15.921,14.996 L16.753,14.965 L16.895,18.803 L16.063,18.834 Z"/>
  <path id="Path 8" d="M13.404,20.636 Q12.323,19.927 11.517,19.268 Q10.706,18.605 10.045,17.887 L10.658,17.323 Q11.279,17.997 12.045,18.623 Q12.816,19.254 13.861,19.938 Z"/>
  <path id="Path 9" d="M7.858,19.682 L8.598,17.472 L9.388,17.737 L8.649,19.946 L7.858,19.682 Z"/>
  <path id="Path 10" d="M4.594,15.133 Q5.074,15.454 5.604,15.398 Q6.286,15.327 6.894,15.272 L6.969,16.102 Q6.366,16.156 5.691,16.227 Q4.862,16.314 4.131,15.826 Z"/>
  <path id="Path 11" d="M9.779,15.801 L14.089,14.131 L14.39,14.908 L10.08,16.578 L9.779,15.801 Z"/>
  <path id="Path 12" d="M6.892,14.969 L7.039,9.736 L7.872,9.759 L7.725,14.992 L6.892,14.969 Z"/>
  <path id="Path 13" d="M5.971,9.379 C5.806,9.16 5.791,8.862 5.935,8.628 L7.187,6.589 C7.308,6.392 7.523,6.271 7.755,6.271 L9.685,6.271 C10.053,6.271 10.352,6.57 10.352,6.938 L10.352,9.353 C10.352,9.596 10.219,9.82 10.007,9.937 L7.961,11.063 C7.671,11.223 7.308,11.146 7.108,10.881 Z"/>
  <path id="Path 14" d="M13.605,14.62 L13.378,11.67 C13.363,11.471 13.468,11.281 13.646,11.189 L16.045,9.937 C16.256,9.827 16.516,9.881 16.665,10.066 L18.38,12.188 C18.517,12.358 18.528,12.597 18.408,12.779 L16.674,15.393 C16.557,15.569 16.342,15.653 16.137,15.602 L13.983,15.067 C13.774,15.015 13.622,14.835 13.605,14.62 Z"/>
  <path id="Path 15" d="M7.862,14.097 L10.902,15.937 C11.002,15.997 11.062,16.105 11.062,16.222 L11.062,18.096 C11.062,18.301 10.88,18.457 10.679,18.426 L8.877,18.149 C8.808,18.138 8.743,18.106 8.693,18.056 L6.504,15.891 C6.386,15.774 6.372,15.587 6.472,15.454 L7.422,14.183 C7.525,14.046 7.715,14.009 7.862,14.097 Z"/>
  <path id="Path 16" d="M14.019,3.907 L16.015,4.23 C16.133,4.249 16.243,4.3 16.335,4.376 L17.43,5.288 C17.878,5.662 17.665,6.39 17.087,6.462 L16.562,6.528 C16.416,6.546 16.268,6.516 16.141,6.441 L13.636,4.969 C13.461,4.866 13.353,4.677 13.353,4.474 C13.353,4.12 13.67,3.851 14.019,3.907 Z"/>
</svg>

