<svg xmlns="http://www.w3.org/2000/svg" width="24" height="24" viewBox="0 0 24 24">
  <defs/>
  <path id="Union" d="M12,2.667 C17.155,2.667 21.333,6.845 21.333,12 C21.333,17.155 17.155,21.333 12,21.333 C6.845,21.333 2.667,17.155 2.667,12 C2.667,6.845 6.845,2.667 12,2.667 Z M4,12 C4,16.418 7.582,20 12,20 C16.418,20 20,16.418 20,12 C20,7.582 16.418,4 12,4 C7.582,4 4,7.582 4,12 Z M16.333,16.383 C16.333,16.652 16.145,16.579 15.691,16.402 C15.054,16.156 13.896,15.707 12,15.707 C10.104,15.707 8.946,16.156 8.309,16.402 C7.855,16.579 7.667,16.652 7.667,16.383 C7.667,15.375 9.607,14.333 12,14.333 C14.393,14.333 16.333,15.375 16.333,16.383 Z M10.989,10.862 C10.976,10.89 10.822,10.963 10.763,10.947 C10.636,10.914 10.446,10.753 10.209,10.552 C9.892,10.284 9.493,9.946 9.049,9.745 C8.641,9.56 8.153,9.466 7.749,9.388 C7.439,9.328 7.179,9.278 7.045,9.204 C6.956,9.154 7.024,8.804 7.045,8.758 C7.137,8.555 8.777,8.293 9.921,8.872 C11.065,9.452 11.065,10.695 10.989,10.862 Z M13.237,10.947 C13.178,10.963 13.024,10.89 13.011,10.862 C12.935,10.695 13.114,9.464 14.258,8.885 C15.402,8.306 16.863,8.555 16.955,8.759 C16.976,8.804 17.044,9.154 16.955,9.204 C16.821,9.278 16.561,9.328 16.251,9.388 C15.847,9.466 15.359,9.56 14.95,9.745 C14.507,9.946 14.108,10.284 13.791,10.552 C13.554,10.753 13.364,10.914 13.237,10.947 Z M10.333,11.833 C10.333,12.478 9.886,13 9.333,13 C8.781,13 8.333,12.478 8.333,11.833 C8.333,11.189 8.781,10.667 9.333,10.667 C9.886,10.667 10.333,11.189 10.333,11.833 Z M14.667,13 C14.114,13 13.667,12.478 13.667,11.833 C13.667,11.189 14.114,10.667 14.667,10.667 C15.219,10.667 15.667,11.189 15.667,11.833 C15.667,12.478 15.219,13 14.667,13 Z"/>
</svg>

