<svg xmlns="http://www.w3.org/2000/svg" width="24" height="24" viewBox="0 0 24 24">
  <defs/>
  <path id="Path 11 Copy" d="M15.832,3.222 L20.439,3.222 Q21.053,3.222 21.314,3.779 Q21.576,4.335 21.182,4.808 L16.956,9.889 L20.709,9.889 Q20.999,9.889 21.204,10.094 Q21.409,10.299 21.41,10.589 Q21.409,10.879 21.204,11.084 Q20.999,11.289 20.709,11.289 L16.033,11.289 Q15.418,11.289 15.157,10.732 Q14.896,10.175 15.289,9.703 L19.516,4.622 L15.832,4.622 Q15.542,4.622 15.337,4.417 Q15.132,4.212 15.132,3.922 Q15.132,3.632 15.337,3.427 Q15.542,3.222 15.832,3.222 Z"/>
  <path id="Path 11 Copy 2" d="M4.014,15.13 L6.763,15.13 Q7.319,15.13 7.555,15.633 Q7.791,16.137 7.435,16.565 L5.16,19.3 L6.891,19.3 Q7.181,19.3 7.386,19.505 Q7.591,19.71 7.591,20 Q7.591,20.29 7.386,20.495 Q7.181,20.7 6.891,20.7 L4.04,20.7 Q3.484,20.7 3.248,20.196 Q3.012,19.693 3.367,19.265 L5.643,16.53 L4.014,16.53 Q3.724,16.53 3.519,16.325 Q3.314,16.12 3.314,15.83 Q3.314,15.54 3.519,15.335 Q3.724,15.13 4.014,15.13 Z"/>
  <path id="Path 11 Copy 3" d="M9.565,9.555 L12.929,9.555 Q13.506,9.555 13.756,10.075 Q14.006,10.595 13.646,11.046 L10.673,14.768 L13.082,14.768 Q13.372,14.768 13.577,14.973 Q13.782,15.178 13.782,15.468 Q13.782,15.758 13.577,15.963 Q13.372,16.168 13.082,16.168 L9.67,16.168 Q9.093,16.168 8.843,15.648 Q8.593,15.129 8.953,14.678 L11.926,10.955 L9.565,10.955 Q9.275,10.955 9.07,10.75 Q8.865,10.545 8.865,10.255 Q8.865,9.965 9.07,9.76 Q9.275,9.555 9.565,9.555 Z"/>
</svg>

