<svg xmlns="http://www.w3.org/2000/svg" width="24" height="24" viewBox="0 0 24 24" version="1.1" id="svg1">
   <defs/>
   <path id="Path 2" d="M2.162,11.336 Q1.171,10.801 1.164,9.675 Q1.157,8.548 2.142,8.002 L10.189,3.535 Q11.931,2.568 13.659,3.558 L21.406,7.997 Q22.376,8.553 22.362,9.671 Q22.347,10.788 21.363,11.319 L13.423,15.598 Q11.747,16.501 10.071,15.598 Z M2.795,10.162 L10.704,14.424 Q11.747,14.987 12.79,14.424 L20.73,10.145 Q21.024,9.987 21.028,9.653 Q21.033,9.32 20.743,9.154 L12.996,4.715 Q11.92,4.099 10.836,4.701 L2.789,9.168 Q2.495,9.331 2.497,9.667 Q2.499,10.002 2.795,10.162 Z"/>
   <path id="Path 3" d="M22.152,10.185 L22.263,15.168 Q22.269,15.444 22.078,15.644 Q21.887,15.843 21.611,15.849 Q21.335,15.856 21.136,15.665 Q20.936,15.474 20.93,15.198 L20.819,10.214 Q20.813,9.938 21.004,9.739 Q21.195,9.539 21.471,9.533 Q21.747,9.527 21.946,9.718 Q22.146,9.909 22.152,10.185 Z"/>
   <path id="Path 293" fill="#000000" d="M19.535,13.457 L19.535,15.822 C19.535,16.559 19.139,17.243 18.5,17.609 L13.209,20.646 C12.481,21.065 11.588,21.082 10.844,20.691 L4.977,17.611 C4.3,17.256 3.873,16.551 3.873,15.787 L3.873,13.506 C4.297,13.729 4.746,13.968 5.207,14.213 L5.207,15.787 C5.207,16.058 5.356,16.304 5.596,16.43 L11.463,19.512 C11.804,19.691 12.211,19.682 12.545,19.49 L17.836,16.453 C18.062,16.323 18.201,16.084 18.201,15.822 L18.201,14.223 Z"/>
 </svg>
 
 