<svg xmlns="http://www.w3.org/2000/svg" width="24" height="24" viewBox="0 0 24 24" version="1.1" id="svg2">
   <defs/>
   <path id="path2" fill="#000000" d="M11.174,2.35 C11.397,2.351 11.618,2.387 11.83,2.451 C12.396,2.623 12.897,3.009 13.188,3.566 L15.816,8.604 C16.131,7.973 16.308,7.389 16.771,6.838 L16.771,6.836 C17.532,5.931 18.427,5.939 19.236,6.098 C19.641,6.177 20.074,6.329 20.469,6.732 C20.864,7.136 21.092,7.906 20.938,8.51 C20.502,10.214 20.081,11.646 19.814,12.828 C19.774,13.01 19.777,13.431 19.782,13.982 C19.784,14.278 19.787,14.611 19.783,14.965 C19.773,15.976 19.656,17.232 18.928,18.416 C18.171,19.646 17.185,20.451 16.146,20.83 C15.108,21.209 14.079,21.166 13.227,20.975 C11.521,20.592 10.311,19.604 10.311,19.604 L10.287,19.584 L3.426,13.643 C2.543,12.878 2.419,11.517 3.146,10.604 C3.416,10.266 3.813,10.131 4.201,10 C3.586,9.168 3.537,8.013 4.225,7.213 C4.603,6.772 5.143,6.58 5.686,6.516 C5.151,5.614 5.303,4.432 6.115,3.752 C6.982,3.026 8.247,3.187 9.021,3.979 C9.188,3.418 9.538,2.919 10.08,2.623 C10.425,2.435 10.802,2.347 11.174,2.35 Z M11.174,3.678 C11.02,3.677 10.863,3.714 10.719,3.793 C10.284,4.03 10.108,4.564 10.314,5.014 L12.604,10.002 C12.709,10.231 12.398,10.419 12.244,10.219 L8.172,4.906 C7.882,4.528 7.336,4.47 6.971,4.775 C6.641,5.051 6.575,5.531 6.816,5.887 L10.549,11.377 C10.693,11.589 10.407,11.828 10.225,11.646 L6.59,8.027 C6.209,7.648 5.586,7.673 5.236,8.08 C4.928,8.439 4.94,8.975 5.266,9.318 L8.961,13.219 C9.136,13.403 8.897,13.683 8.688,13.539 L5.359,11.26 C4.983,11.002 4.472,11.077 4.188,11.434 C3.896,11.799 3.946,12.329 4.299,12.635 L11.137,18.557 C11.137,18.557 15.27,21.816 17.793,17.717 C18.496,16.575 18.466,15.265 18.44,14.136 C18.426,13.533 18.413,12.982 18.514,12.535 C18.795,11.287 19.218,9.856 19.646,8.18 C19.865,7.327 18.267,7.132 17.793,7.695 C17.117,8.5 16.458,9.987 16.105,10.855 C16.001,11.114 15.633,11.134 15.504,10.887 L12.006,4.184 C11.838,3.862 11.512,3.679 11.174,3.678 Z"/>
   <path id="Path" d="M16.196,10.61 Q15.912,11.167 15.657,11.723 Q15.63,11.781 15.577,11.897 Q15.374,12.334 15.295,12.527 Q15.191,12.783 14.936,12.89 Q14.682,12.997 14.426,12.893 Q14.17,12.789 14.063,12.534 Q13.956,12.28 14.06,12.024 Q14.151,11.802 14.367,11.335 Q14.42,11.221 14.445,11.166 Q14.712,10.586 15.007,10.006 Q15.132,9.759 15.395,9.674 Q15.657,9.588 15.903,9.713 Q16.15,9.838 16.235,10.101 Q16.321,10.363 16.196,10.61 Z"/>
   <path id="Path 289" d="M10.356,5.438 L12.812,9.601 Q12.917,9.78 12.865,9.98 Q12.814,10.181 12.635,10.286 Q12.457,10.391 12.256,10.34 Q12.056,10.288 11.95,10.11 L9.494,5.947 Q9.389,5.768 9.441,5.568 Q9.493,5.367 9.671,5.262 Q9.849,5.157 10.05,5.208 Q10.25,5.26 10.356,5.438 Z"/>
   <path id="Path 290" d="M7.736,7.502 L10.858,11.117 Q10.994,11.274 10.979,11.481 Q10.964,11.687 10.807,11.823 Q10.65,11.958 10.444,11.943 Q10.237,11.928 10.102,11.771 L6.979,8.156 Q6.843,7.999 6.859,7.792 Q6.874,7.586 7.03,7.45 Q7.187,7.315 7.394,7.33 Q7.6,7.345 7.736,7.502 Z"/>
   <path id="Path 290 Copy" d="M5.834,10.305 L9.228,12.979 Q9.391,13.107 9.415,13.313 Q9.44,13.518 9.311,13.681 Q9.183,13.844 8.978,13.868 Q8.772,13.892 8.609,13.764 L5.215,11.09 Q5.053,10.962 5.028,10.756 Q5.004,10.551 5.132,10.388 Q5.26,10.225 5.466,10.201 Q5.672,10.176 5.834,10.305 Z"/>
 </svg>
 
 